<svg width="512" height="512" viewBox="0 0 512 512" fill="none" xmlns="http://www.w3.org/2000/svg">
<path fill-rule="evenodd" clip-rule="evenodd" d="M256.379 20.6764C126.488 20.6764 20.6764 126.077 20.6764 255.701C20.6764 384.625 126.735 490.725 256.379 490.725C385.303 490.725 491.371 384.871 491.371 255.701C491.371 126.762 385.298 20.6764 256.379 20.6764ZM5 255.701C5 117.371 117.878 5 256.379 5C393.957 5 507.047 118.106 507.047 255.701C507.047 393.537 393.952 506.402 256.379 506.402C118.105 506.402 5 393.31 5 255.701Z" fill="#FF6B01"/>
<path d="M374.48 314.879C365.013 363.167 321.938 401.277 272.236 404.354C220.403 407.905 171.411 380.683 152.714 329.318C147.034 314.168 145.614 298.309 145.614 281.739C145.614 265.88 145.614 250.731 145.614 234.871C145.614 220.432 150.584 215.461 165.021 215.461C192.476 215.461 219.693 215.461 246.438 215.461C246.438 215.461 246.438 215.461 246.438 214.751C273.182 214.751 299.69 214.751 326.435 214.751C338.742 214.751 351.049 215.461 363.119 215.461C370.22 215.461 376.847 220.432 376.847 227.77C377.32 257.832 380.397 286.71 374.48 314.879Z" fill="#FF6B01"/>
<path d="M212.356 201.021C229.634 201.731 235.314 199.601 236.024 188.712C236.734 169.302 236.734 150.602 236.024 130.955C236.024 123.854 230.344 118.647 223.717 118.647C219.457 118.647 215.906 118.647 211.41 118.647C203.599 118.647 198.392 124.328 197.682 132.376C197.682 141.844 197.682 150.366 197.682 159.834C197.682 169.302 197.682 178.534 197.682 188.002C198.629 195.813 203.836 200.311 212.356 201.021Z" fill="#FF6B01"/>
<path d="M302.53 201.021C319.098 201.021 325.488 198.181 325.488 188.002C325.488 168.592 325.488 149.892 325.488 130.245C325.488 123.144 319.808 118.647 312.471 117.937C308.921 117.937 304.661 117.937 300.874 117.937C292.117 117.937 287.146 122.908 287.146 131.666C287.146 140.424 287.146 149.656 287.146 158.414C287.146 167.882 287.146 177.114 287.146 187.292C288.093 195.814 293.063 201.021 302.53 201.021Z" fill="#FF6B01"/>
</svg>
